<svg xmlns="http://www.w3.org/2000/svg" fill-rule="evenodd" stroke-linejoin="round" stroke-miterlimit="2" clip-rule="evenodd" viewBox="0 0 8 8"><path d="M2.88.24c-.927 0-1.68.753-1.68 1.68 0 .927.753 1.68 1.68 1.68.927 0 1.68-.753 1.68-1.68 0-.927-.753-1.68-1.68-1.68zm0 .48c.662 0 1.2.538 1.2 1.2 0 .662-.538 1.2-1.2 1.2-.662 0-1.2-.538-1.2-1.2 0-.662.538-1.2 1.2-1.2zM5.28 3.12c-1.192 0-2.16.968-2.16 2.16 0 1.192.968 2.16 2.16 2.16 1.192 0 2.16-.968 2.16-2.16 0-1.192-.968-2.16-2.16-2.16zm0 .48c.927 0 1.68.753 1.68 1.68 0 .927-.753 1.68-1.68 1.68-.927 0-1.68-.753-1.68-1.68 0-.927.753-1.68 1.68-1.68z"/><path d="M4.347 5.45l.509.509c.045.045.106.07.169.07.064 0 .125-.025.17-.07l1.018-1.018c.094-.094.094-.246 0-.34-.093-.093-.245-.093-.339 0l-.849.849c0 0-.339-.34-.339-.34-.094-.093-.246-.093-.339 0-.094.094-.094.246 0 .34zM.24 6.72l0 0c0 .191.076.374.211.509.135.135.318.211.509.211l0 0 2.174 0c.133 0 .24-.108.24-.24 0-.132-.107-.24-.24-.24l-2.174 0c-.064 0-.125-.025-.17-.07l-.001-.001c-.044-.045-.069-.106-.069-.169l0 0c0-1.095.813-1.999 1.869-2.141.131-.017.223-.138.205-.269-.017-.132-.138-.224-.269-.206-1.29.173-2.285 1.278-2.285 2.616z"/></svg>